<svg xmlns="http://www.w3.org/2000/svg" viewBox="0 0 32 32" width="32" height="32">
  <defs>
    <linearGradient id="bgGradient" x1="0%" y1="0%" x2="100%" y2="100%">
      <stop offset="0%" style="stop-color:#3b82f6;stop-opacity:1" />
      <stop offset="100%" style="stop-color:#1d4ed8;stop-opacity:1" />
    </linearGradient>
    <linearGradient id="houseGradient" x1="0%" y1="0%" x2="100%" y2="100%">
      <stop offset="0%" style="stop-color:#ffffff;stop-opacity:1" />
      <stop offset="100%" style="stop-color:#e5e7eb;stop-opacity:1" />
    </linearGradient>
  </defs>
  
  <!-- Background circle -->
  <circle cx="16" cy="16" r="15" fill="url(#bgGradient)" stroke="#1e40af" stroke-width="1"/>
  
  <!-- House shape -->
  <path d="M8 18L16 10L24 18V26H20V22H12V26H8V18Z" fill="url(#houseGradient)" stroke="#1e40af" stroke-width="0.5"/>
  
  <!-- Roof -->
  <path d="M6 18L16 8L26 18" stroke="#fbbf24" stroke-width="1.5" stroke-linecap="round" stroke-linejoin="round" fill="none"/>
  
  <!-- Door -->
  <rect x="14" y="22" width="4" height="4" fill="#1e40af"/>
  
  <!-- Dollar sign overlay -->
  <circle cx="20" cy="14" r="4" fill="#10b981" stroke="#047857" stroke-width="0.5"/>
  <path d="M19 12h2M19 16h2M20 11v1M20 16v1M18.5 13h3a1 1 0 0 1 0 2h-2a1 1 0 0 1 0 2h3" 
        stroke="#ffffff" stroke-width="0.8" stroke-linecap="round" stroke-linejoin="round" fill="none"/>
  
  <!-- Window -->
  <rect x="10" y="20" width="2" height="2" fill="#60a5fa"/>
</svg>