<svg xmlns="http://www.w3.org/2000/svg" viewBox="0 0 32 32" width="32" height="32">
  <defs>
    <linearGradient id="bgGradient" x1="0%" y1="0%" x2="100%" y2="100%">
      <stop offset="0%" style="stop-color:#3b82f6;stop-opacity:1" />
      <stop offset="100%" style="stop-color:#1d4ed8;stop-opacity:1" />
    </linearGradient>
    <linearGradient id="coinGradient" x1="0%" y1="0%" x2="100%" y2="100%">
      <stop offset="0%" style="stop-color:#fbbf24;stop-opacity:1" />
      <stop offset="100%" style="stop-color:#f59e0b;stop-opacity:1" />
    </linearGradient>
  </defs>
  
  <!-- Background circle -->
  <circle cx="16" cy="16" r="15" fill="url(#bgGradient)" stroke="#1e40af" stroke-width="1"/>
  
  <!-- Money symbol -->
  <circle cx="16" cy="16" r="8" fill="url(#coinGradient)" stroke="#d97706" stroke-width="0.5"/>
  
  <!-- Dollar sign -->
  <path d="M14 10h4M14 22h4M16 8v2M16 22v2M13 12h6a2 2 0 0 1 0 4h-4a2 2 0 0 1 0 4h6" 
        stroke="#ffffff" stroke-width="1.5" stroke-linecap="round" stroke-linejoin="round" fill="none"/>
  
  <!-- Small chart bars for financial context -->
  <rect x="6" y="20" width="2" height="6" fill="#60a5fa" opacity="0.8"/>
  <rect x="9" y="18" width="2" height="8" fill="#60a5fa" opacity="0.8"/>
  <rect x="21" y="17" width="2" height="9" fill="#60a5fa" opacity="0.8"/>
  <rect x="24" y="19" width="2" height="7" fill="#60a5fa" opacity="0.8"/>
</svg>